<?xml version="1.0" standalone="no"?>
<!DOCTYPE svg PUBLIC "-//W3C//DTD SVG 20010904//EN"
 "http://www.w3.org/TR/2001/REC-SVG-20010904/DTD/svg10.dtd">
<svg version="1.0" xmlns="http://www.w3.org/2000/svg"
 width="600.000000pt" height="600.000000pt" viewBox="0 0 600.000000 600.000000"
 preserveAspectRatio="xMidYMid meet">
<metadata>
Created by potrace 1.14, written by Peter Selinger 2001-2017
</metadata>
<g transform="translate(0.000000,600.000000) scale(0.100000,-0.100000)"
fill="#000000" stroke="none">
<path d="M2776 5802 c-4 -6 -1 -22 6 -34 7 -13 11 -28 10 -34 -1 -5 11 -23 28
-39 16 -16 30 -33 30 -37 0 -5 9 -18 20 -30 10 -12 17 -24 15 -28 -2 -4 5 -16
15 -28 11 -12 20 -24 20 -28 0 -3 12 -21 28 -39 41 -48 57 -69 67 -85 10 -17
14 -19 -104 69 -53 39 -71 59 -68 72 3 10 -2 27 -10 38 -8 12 -11 21 -6 21 4
1 -3 10 -16 21 -13 11 -25 18 -27 16 -2 -1 4 -22 12 -46 8 -23 12 -46 9 -51
-7 -12 21 -74 51 -109 l27 -32 -34 15 c-42 18 -91 30 -104 26 -5 -2 -44 -7
-85 -11 -41 -4 -102 -12 -135 -17 -33 -6 -96 -15 -140 -21 -44 -7 -103 -15
-130 -20 -28 -5 -68 -10 -90 -12 -22 -1 -44 -6 -50 -10 -22 -15 -245 -42 -325
-40 -109 3 -158 14 -176 40 -12 17 -19 19 -40 11 -33 -13 -54 -13 -54 1 0 6
-7 17 -15 25 -9 10 -15 34 -15 67 0 45 -2 50 -15 37 -19 -20 -22 -66 -6 -110
15 -42 108 -113 179 -136 26 -8 55 -19 64 -24 10 -6 24 -10 32 -10 8 0 51 -16
95 -35 43 -19 91 -35 105 -35 13 0 28 -5 31 -11 4 -6 19 -7 38 -3 17 3 69 7
116 9 73 2 82 1 66 -11 -10 -8 -26 -14 -35 -14 -8 0 -24 -6 -35 -14 -11 -7
-38 -19 -60 -26 -86 -28 -294 -137 -365 -192 -106 -82 -187 -158 -205 -193
-24 -48 -43 -68 -58 -62 -11 4 -13 0 -9 -15 3 -11 14 -23 24 -26 18 -4 17 -7
-9 -35 -15 -16 -50 -40 -78 -52 -27 -13 -72 -38 -100 -57 -61 -42 -161 -66
-197 -47 -13 6 -30 18 -40 26 -17 16 -35 2 -22 -18 9 -16 -34 -1 -69 23 -31
22 -52 56 -48 78 2 13 0 13 -14 -1 -25 -24 -10 -63 42 -109 37 -32 54 -40 101
-45 55 -6 133 -37 154 -62 8 -10 3 -13 -23 -14 -113 -2 -143 -5 -146 -15 -6
-17 33 -24 139 -25 53 0 107 -7 125 -14 18 -8 53 -17 78 -20 49 -8 54 -15 27
-42 -41 -40 -122 -171 -122 -198 0 -8 -5 -25 -12 -38 -6 -12 -14 -29 -18 -37
-8 -19 0 -110 10 -110 4 0 17 31 29 68 15 44 33 79 53 97 17 16 42 46 55 67
25 37 53 51 53 26 0 -6 -8 -21 -18 -32 -22 -24 -42 -90 -42 -134 0 -17 -10
-43 -24 -59 -13 -15 -26 -41 -29 -58 -3 -16 -15 -70 -27 -120 -76 -319 -96
-467 -70 -515 6 -12 14 -19 17 -16 3 3 7 44 9 92 5 128 33 210 100 283 l22 23
6 -38 c7 -48 8 -85 1 -199 -6 -104 12 -191 50 -241 14 -18 25 -37 25 -43 0 -6
7 -11 16 -11 18 0 18 3 -15 92 -12 32 -21 80 -21 107 0 50 16 101 32 101 13 0
10 -44 -4 -58 -10 -10 -10 -14 0 -21 6 -4 14 -33 16 -65 2 -32 10 -63 17 -70
6 -6 9 -6 6 -1 -3 6 -2 46 1 89 l7 79 35 -69 c19 -38 34 -71 34 -74 0 -3 6
-11 13 -18 7 -7 13 -20 13 -29 0 -8 9 -26 20 -41 13 -15 20 -40 20 -61 -1 -52
15 -126 44 -207 14 -39 26 -80 26 -91 0 -11 9 -32 20 -46 11 -14 21 -41 22
-59 1 -33 -26 -88 -43 -88 -5 0 -9 -11 -9 -25 0 -26 15 -34 23 -12 3 6 6 3 6
-8 1 -20 -42 -75 -58 -75 -5 0 -12 -12 -16 -27 -3 -16 -38 -70 -77 -122 -39
-51 -70 -103 -70 -115 -1 -11 4 -46 10 -76 6 -30 13 -98 15 -151 4 -90 13
-124 42 -159 7 -8 21 -56 31 -106 l18 -92 -28 -53 c-15 -30 -43 -92 -63 -139
-19 -47 -43 -99 -54 -116 -11 -18 -21 -57 -24 -92 -2 -33 -11 -75 -19 -94 -8
-18 -22 -51 -31 -73 -9 -22 -20 -48 -25 -57 -33 -60 -90 -249 -95 -314 -2 -35
-17 -92 -34 -136 -31 -76 -34 -100 -46 -310 l-5 -98 1923 0 1923 0 -7 77 c-4
43 -15 143 -25 223 -25 215 -31 311 -23 354 3 13 -4 24 -21 33 -16 8 -19 13
-9 13 9 0 22 7 29 15 7 8 8 15 3 15 -6 0 -13 19 -17 43 -11 71 -13 80 -35 147
-18 56 -21 90 -21 238 l0 172 -31 0 c-16 0 -28 4 -24 9 3 6 -3 14 -12 20 -10
6 -13 11 -7 11 5 0 14 -4 20 -9 5 -5 19 -12 32 -16 30 -9 30 18 -2 38 -13 9
-29 22 -37 29 -8 7 -33 28 -56 46 -32 25 -43 41 -48 71 -4 27 -12 41 -27 44
-15 4 -18 11 -13 28 6 18 4 21 -9 16 -10 -4 -16 -1 -16 6 0 7 -13 26 -30 42
-16 16 -30 37 -30 47 0 13 -15 26 -47 40 -27 12 -58 32 -70 45 -13 13 -23 21
-23 17 0 -4 -13 5 -30 21 -16 16 -30 36 -30 45 0 9 -5 21 -11 27 -16 16 -2 83
16 83 23 0 28 20 15 66 -14 49 -40 60 -40 17 0 -43 -19 -14 -34 53 -16 70 -18
124 -5 124 5 0 9 -5 9 -11 0 -6 10 -9 22 -7 25 3 38 38 15 38 -28 0 -117 115
-117 152 0 7 -10 29 -23 48 -13 19 -31 54 -41 77 -11 24 -37 62 -58 84 -32 33
-47 42 -76 43 -34 1 -38 5 -69 64 -18 34 -37 81 -44 104 -6 23 -17 51 -24 62
-8 12 -21 62 -30 111 -9 50 -23 119 -31 154 -10 47 -11 68 -4 75 17 17 37 -18
45 -77 9 -65 43 -147 61 -147 16 0 18 19 5 53 -16 41 -21 192 -11 315 7 90 17
141 41 207 17 49 35 109 39 134 5 25 15 70 22 100 l13 53 73 -61 c69 -58 115
-81 130 -67 3 4 -8 19 -26 34 -18 15 -32 34 -32 41 0 7 -15 30 -33 52 -19 21
-42 65 -52 96 -10 32 -26 74 -36 94 -11 20 -19 43 -19 50 0 8 -6 25 -13 39 -7
14 -21 51 -31 83 -10 31 -22 57 -27 57 -5 0 -9 5 -9 12 0 6 -13 40 -30 75 -16
34 -30 67 -30 71 0 4 -9 25 -20 47 -11 22 -20 50 -20 62 0 13 -4 23 -9 23 -8
0 -24 41 -26 67 0 7 -6 18 -13 25 -6 6 -12 16 -12 20 0 11 108 -74 178 -141
30 -27 127 -91 140 -91 5 0 12 14 16 30 4 21 11 30 26 30 11 0 20 5 20 10 0
15 -26 12 -40 -5 -17 -21 -30 -19 -30 5 0 12 -7 20 -16 20 -32 0 -174 131
-174 161 0 14 -74 95 -156 169 -105 94 -182 143 -246 154 -27 5 -45 17 -65 44
-47 61 -81 115 -97 152 -17 42 -88 141 -137 190 -43 44 -97 90 -105 90 -4 0
-23 15 -44 33 -61 53 -104 87 -114 87 -5 0 -28 16 -52 35 -23 19 -47 35 -52
35 -5 0 -17 9 -27 20 -10 11 -26 20 -35 20 -10 0 -20 7 -24 15 -3 8 -11 15
-17 15 -7 0 -17 7 -24 17 -8 11 -14 13 -19 5z m-1191 -462 c10 -11 14 -20 9
-20 -12 1 -44 25 -44 34 0 12 17 6 35 -14z m1595 -1620 c0 -5 -5 -10 -11 -10
-5 0 -7 5 -4 10 3 6 8 10 11 10 2 0 4 -4 4 -10z m170 -53 c0 -17 -34 -49 -43
-41 -3 3 -1 17 5 30 12 26 38 33 38 11z m-135 -72 c-1 -36 -4 -67 -6 -70 -3
-2 -48 -1 -100 3 l-94 7 20 20 c11 11 31 35 44 53 27 38 51 50 102 51 l35 1
-1 -65z m148 -37 c4 -35 8 -74 9 -88 3 -24 1 -25 -46 -23 -55 2 -80 17 -46 28
20 6 20 8 5 25 -13 14 -14 22 -3 46 6 16 12 34 12 39 1 11 35 34 52 35 7 0 14
-26 17 -62z m-1083 -48 c0 -5 -8 -10 -17 -10 -15 0 -16 2 -3 10 19 12 20 12
20 0z m-90 -30 c-36 -32 -46 -37 -34 -18 18 28 39 48 53 48 9 0 1 -12 -19 -30z
m644 -20 c-15 -22 -31 -37 -36 -34 -6 4 -8 -1 -4 -13 4 -12 -1 -27 -14 -41
-20 -22 -18 -52 5 -52 7 0 48 32 91 70 57 51 83 68 97 64 10 -3 26 1 35 9 21
18 101 31 128 20 17 -6 17 -8 -6 -14 -14 -4 -40 -7 -58 -8 -49 -1 -83 -27 -76
-57 4 -13 1 -30 -5 -38 -6 -7 -9 -21 -5 -30 3 -9 1 -23 -6 -31 -7 -9 -11 -17
-9 -20 3 -2 44 -12 93 -21 66 -13 90 -22 93 -35 8 -29 104 -39 140 -14 20 14
21 13 19 -18 -1 -26 3 -32 19 -31 11 1 28 5 37 8 15 7 15 4 2 -40 -17 -56 -18
-94 -4 -94 6 0 27 7 47 15 19 8 37 15 39 15 15 0 -4 -56 -46 -139 l-51 -98
-231 -57 c-128 -32 -298 -80 -378 -107 -212 -72 -211 -72 -264 -49 -25 10
-103 31 -173 46 -70 15 -138 29 -150 31 -20 5 -39 28 -78 95 -5 9 -27 45 -48
78 -20 34 -37 63 -37 65 0 14 37 11 57 -5 34 -27 45 -25 31 5 -6 14 -14 25
-18 25 -10 0 -77 66 -95 94 -13 19 -15 36 -11 63 12 66 16 75 30 64 13 -11 55
-3 95 19 19 10 29 8 64 -17 23 -15 50 -31 60 -35 10 -5 17 -14 15 -20 -7 -20
-38 -21 -59 -2 -10 9 -22 14 -27 10 -12 -12 29 -36 62 -36 17 0 44 7 60 15 15
8 41 15 56 15 33 0 75 31 96 73 16 29 15 32 -5 48 -26 22 -26 23 4 54 32 31
35 31 35 0 0 -14 2 -25 3 -25 11 0 67 33 77 45 7 8 20 15 30 15 10 0 23 7 30
15 7 8 17 15 24 15 14 0 120 53 124 63 2 4 12 7 22 7 10 0 20 4 22 9 2 7 62
47 76 50 1 1 -10 -17 -24 -39z m1006 18 c0 -7 -4 -18 -8 -23 -8 -11 -58 -45
-67 -45 -13 0 -3 28 20 53 27 28 55 36 55 15z m-1451 -80 c-9 -23 -21 -44 -29
-46 -7 -3 -10 0 -6 7 12 19 -4 51 -25 51 -27 0 -23 12 13 37 29 20 34 21 47 8
13 -13 13 -20 0 -57z m-149 35 c-1 -19 -59 -48 -107 -53 -51 -6 -52 -5 -35 13
9 10 18 14 20 9 4 -12 38 -4 77 19 33 20 45 23 45 12z m1606 -76 c-13 -113
-15 -118 -43 -96 -16 13 -17 12 -4 -3 7 -10 9 -18 4 -18 -5 0 -20 -18 -33 -40
-14 -22 -28 -40 -32 -40 -10 0 -11 -30 -1 -30 3 0 15 7 25 17 28 25 30 10 2
-20 -28 -30 -44 -35 -44 -12 0 11 -11 15 -42 15 -38 0 -40 1 -27 18 26 32 39
61 33 76 -6 16 82 106 104 106 7 0 11 -4 7 -9 -3 -5 -1 -12 3 -15 14 -9 43 63
36 89 -4 17 -2 25 6 25 9 0 11 -16 6 -63z m-1376 27 c0 -8 -5 -12 -10 -9 -6 4
-8 11 -5 16 9 14 15 11 15 -7z m1130 12 c0 -3 -4 -8 -10 -11 -5 -3 -10 -1 -10
4 0 6 5 11 10 11 6 0 10 -2 10 -4z m-1280 -35 c0 -4 -11 -6 -25 -3 -14 2 -25
6 -25 8 0 2 11 4 25 4 14 0 25 -4 25 -9z m950 -31 c0 -5 -9 -10 -19 -10 -11 0
-23 5 -26 10 -4 6 5 10 19 10 14 0 26 -4 26 -10z m-2 -72 c-3 -7 -12 -14 -21
-16 -12 -2 -15 1 -11 12 7 19 38 22 32 4z m-938 -30 c0 -11 -7 -10 -31 2 -28
16 -23 32 6 18 14 -6 25 -15 25 -20z m-549 -21 c-8 -8 -11 -7 -11 4 0 20 13
34 18 19 3 -7 -1 -17 -7 -23z m65 -103 c27 -40 34 -59 28 -76 -7 -24 -4 -35 8
-31 10 4 30 -35 26 -49 -2 -5 -19 4 -37 21 -18 17 -36 31 -40 31 -3 0 -23 14
-44 31 -37 31 -37 31 -18 48 20 17 20 18 -1 38 -24 25 -19 37 16 39 21 2 33
-8 62 -52z m1864 -21 c0 -7 -158 -76 -186 -80 -38 -6 -47 5 -31 37 15 30 73
47 155 47 34 0 62 -2 62 -4z m-1991 -80 c-1 -10 -1 -21 0 -25 0 -5 0 -9 -1
-10 -1 -2 4 -13 11 -25 11 -22 10 -23 -19 -23 -34 0 -37 13 -18 67 13 35 30
45 27 16z m1936 7 c-3 -5 -11 -10 -16 -10 -6 0 -7 5 -4 10 3 6 11 10 16 10 6
0 7 -4 4 -10z m1218 -1747 c-8 -52 -13 -54 -13 -5 0 23 4 42 9 42 6 0 7 -17 4
-37z m-106 -502 c3 -12 17 -23 35 -26 16 -4 32 -13 35 -21 7 -20 23 -17 23 4
1 9 8 28 16 42 9 15 13 17 10 6 -5 -14 -2 -17 13 -13 13 3 21 -1 24 -15 9 -31
-2 -47 -31 -47 -33 1 -90 -9 -103 -17 -12 -7 -69 5 -69 16 0 4 14 10 30 14 38
7 38 21 -1 40 -30 15 -31 15 -26 -3 3 -14 -2 -21 -17 -25 -14 -4 -17 -8 -9
-14 17 -11 -19 -33 -36 -22 -9 5 -10 10 -2 14 6 4 11 11 11 15 0 15 -35 18
-100 9 -48 -6 -66 -5 -71 4 -12 19 0 26 56 32 28 3 77 9 110 14 92 14 96 14
102 -7z m74 -14 c-13 -13 -26 -3 -16 12 3 6 11 8 17 5 6 -4 6 -10 -1 -17z
m-391 -52 c0 -8 -4 -15 -10 -15 -5 0 -10 7 -10 15 0 8 5 15 10 15 6 0 10 -7
10 -15z m140 -4 c43 -2 7 -19 -57 -26 -51 -6 -63 -4 -63 7 0 8 2 17 4 19 4 4
54 4 116 0z m-145 -51 c-6 -10 -45 -1 -45 10 0 4 11 5 25 2 14 -2 23 -8 20
-12z m360 -138 c0 -31 -19 -28 -23 4 -3 18 0 25 10 22 7 -3 13 -14 13 -26z
m-159 4 c22 -22 17 -26 -33 -26 -45 0 -46 0 -28 20 21 24 41 25 61 6z m194
-28 c0 -28 -3 -39 -10 -32 -9 9 -3 74 6 74 2 0 4 -19 4 -42z m66 16 c-3 -7 -1
-16 4 -19 6 -4 10 -1 10 5 0 7 6 10 13 8 6 -3 12 -11 12 -18 0 -20 -38 -22
-52 -3 -12 16 -13 16 -13 0 0 -9 -4 -17 -10 -17 -5 0 -10 13 -10 29 0 24 4 29
26 29 17 0 24 -5 20 -14z m-443 -15 c-5 -19 -29 -37 -37 -28 -2 2 0 14 5 27
11 29 39 30 32 1z m87 11 c12 -8 9 -10 -12 -10 -15 0 -30 5 -33 10 -8 13 25
13 45 0z m170 -200 c0 -9 -31 -30 -44 -30 -12 0 -6 28 7 33 20 9 37 8 37 -3z"/>
<path d="M3110 3580 c0 -5 5 -10 11 -10 5 0 7 5 4 10 -3 6 -8 10 -11 10 -2 0
-4 -4 -4 -10z"/>
<path d="M3078 3553 c7 -3 16 -2 19 1 4 3 -2 6 -13 5 -11 0 -14 -3 -6 -6z"/>
<path d="M2557 2993 c-4 -3 -7 -36 -7 -73 0 -55 4 -72 26 -101 14 -19 29 -40
33 -48 6 -9 13 -11 22 -5 8 5 22 7 32 6 22 -4 22 4 -2 34 -12 15 -21 20 -23
12 -2 -6 -10 -8 -17 -4 -7 5 -10 15 -6 24 3 8 1 18 -5 22 -6 4 -16 37 -22 73
-10 64 -16 75 -31 60z"/>
<path d="M1066 1171 c-4 -7 -5 -15 -2 -18 9 -9 19 4 14 18 -4 11 -6 11 -12 0z"/>
</g>
</svg>
